<svg width="14" height="14" viewBox="0 0 14 14" fill="none" xmlns="http://www.w3.org/2000/svg">
<path d="M7.95419 1.21133C7.77919 1.27695 7.67529 1.35625 7.37724 1.6625C7.03271 2.00977 6.96435 2.13281 6.96435 2.40625C6.96435 2.74531 6.92607 2.69609 8.60771 4.38047L10.1308 5.90625H5.38115C0.672553 5.90625 0.628803 5.90625 0.481146 5.96094C0.278803 6.0375 0.101068 6.22891 0.0409119 6.43672C0.00536505 6.55977 -0.00283807 6.68555 0.00536505 7.04922C0.0135682 7.4457 0.0217713 7.52227 0.0737244 7.63164C0.142084 7.78477 0.303412 7.9543 0.451068 8.02539C0.557709 8.08008 0.656146 8.08008 5.3538 8.09375L10.1444 8.10742L8.61318 9.63867C6.92607 11.3258 6.96162 11.282 6.96435 11.6129C6.96708 11.8754 7.04912 12.0176 7.41552 12.3758C7.79833 12.7531 7.89677 12.8105 8.17568 12.8105C8.34521 12.8078 8.40536 12.7969 8.51747 12.7367C8.70068 12.6383 13.8577 7.47852 13.9343 7.31445C14.0108 7.15039 14.0054 6.8332 13.9206 6.66914C13.8331 6.49414 8.64872 1.31523 8.49287 1.24414C8.35068 1.18125 8.07997 1.16484 7.95419 1.21133Z" fill="white"/>
</svg>
