<svg width="501" height="600" viewBox="0 0 501 600" fill="none" xmlns="http://www.w3.org/2000/svg">
<path d="M235.596 1.9532C227.062 6.08653 227.329 3.28653 227.329 93.2865C227.329 183.287 227.329 183.153 235.596 198.62C237.862 202.887 243.196 210.22 247.462 214.887C251.862 219.553 255.329 223.953 255.196 224.62C255.196 225.153 249.996 230.22 243.729 235.687C224.529 252.487 175.462 301.953 159.196 321.02C113.862 373.687 86.929 418.887 74.529 462.353L71.329 473.687L71.9957 462.353C77.329 380.62 98.129 279.02 119.329 232.353C127.062 215.287 126.129 202.753 116.262 192.087C102.529 177.153 80.7957 175.287 67.5957 188.087C60.929 194.353 54.929 207.287 45.329 235.953C30.2623 281.02 14.7957 344.22 8.12901 387.687C0.262342 439.287 -2.40432 501.82 2.39568 520.353C11.1957 553.687 34.929 580.887 65.4623 592.487C84.6623 599.82 79.1957 599.553 289.062 599.687C503.862 599.687 489.062 600.353 496.129 590.887C503.596 581.287 500.396 563.82 488.929 551.42C484.929 547.153 478.662 543.287 464.796 536.353L445.996 527.153L427.329 471.02L408.662 415.02V327.42V239.687L413.596 235.42C440.796 211.42 451.062 196.487 453.996 176.353C454.662 171.02 455.329 134.753 455.329 90.6199C455.329 7.5532 455.329 7.68653 447.862 2.88653C445.862 1.5532 441.996 0.353195 439.329 0.353195C434.929 0.353195 430.129 3.68653 399.329 26.7532L364.262 53.0199H341.062H317.996L285.596 28.7532C244.662 -2.0468 244.262 -2.31347 235.596 1.9532Z" fill="#4D4D4D"/>
</svg>
