<svg width="91" height="91" viewBox="0 0 91 91" fill="none" xmlns="http://www.w3.org/2000/svg">
<circle cx="45.5" cy="45.5" r="45.5" fill="#809793"/>
<path d="M27.8001 29.8351C24.6084 32.4966 22 34.7021 22 34.7551C22 34.8187 32.158 43.3438 33.4729 44.383C33.6213 44.4996 33.7804 44.3618 34.7241 43.2378C35.636 42.1563 35.7844 41.923 35.6678 41.817C35.5829 41.7427 34.2045 40.587 32.6034 39.2615C31.0023 37.9361 29.592 36.7591 29.4754 36.6425C29.2633 36.4516 29.5072 36.441 42.3055 36.4835C55.1674 36.5153 55.3582 36.5153 56.2489 36.7379C58.9528 37.406 61.1477 38.6253 62.8973 40.3961C64.1803 41.7003 64.8165 42.5592 65.4951 43.927C66.513 45.9311 66.8947 47.6276 66.8947 50.024C66.8947 52.4203 66.513 54.1169 65.4951 56.1209C64.8165 57.4888 64.1803 58.3476 62.8973 59.6519C61.1477 61.4226 58.9528 62.6314 56.2489 63.31C55.3582 63.5327 55.231 63.5327 39.9515 63.5645L24.5448 63.6069V65.3035V67L40.0576 66.9576C55.5385 66.9258 55.5597 66.9258 56.6201 66.6925C60.5751 65.823 63.9046 63.8614 66.3328 60.9667C68.252 58.6657 69.4608 56.1315 70.0545 53.152C70.3938 51.4872 70.3938 48.5607 70.0545 46.896C68.6761 39.9614 63.6289 34.8823 56.6201 33.3555C55.5703 33.1328 55.4113 33.1222 42.4221 33.0692L29.2951 33.0055L32.3489 30.4607C34.0242 29.0611 35.4981 27.8417 35.6147 27.7463C35.8162 27.5766 35.7844 27.5342 34.7347 26.283C34.1409 25.5832 33.6425 25 33.6319 25C33.6107 25 30.9917 27.1737 27.8001 29.8351Z" fill="white"/>
</svg>
